<svg width="60" height="73" viewBox="0 0 60 73" fill="none" xmlns="http://www.w3.org/2000/svg">
<path d="M24.8591 45.4078C25.9529 47.9072 27.3439 50.2657 29.0021 52.4322C30.6642 50.266 32.0596 47.9075 33.1582 45.4078C30.4011 45.2805 27.6177 45.2805 24.8591 45.4078Z" fill="white"/>
<path d="M15.0864 46.3751C17.4075 49.6653 20.8138 52.0322 24.7069 53.06C23.1239 50.7651 21.8182 48.2908 20.8172 45.6888C18.8986 45.8541 16.9801 46.0824 15.0864 46.3751Z" fill="white"/>
<path d="M13.1415 30.3595C11.5655 34.3485 11.5655 38.7876 13.1415 42.7766C15.3366 42.4078 17.5522 42.1151 19.699 41.8985C18.9227 38.3799 18.9227 34.7343 19.699 31.2156C17.539 31.021 15.3395 30.7283 13.1415 30.3595Z" fill="white"/>
<path d="M23.5891 41.6088C25.394 41.5113 27.1989 41.4625 29.0038 41.4625C30.8213 41.4625 32.6257 41.5137 34.4301 41.6088C35.2446 38.2922 35.2446 34.8278 34.4301 31.5113C30.8197 31.7273 27.1996 31.7273 23.5891 31.5113C22.7747 34.8278 22.7747 38.2922 23.5891 41.6088Z" fill="white"/>
<path d="M44.8759 42.7766C46.4349 38.7844 46.4349 34.3517 44.8759 30.3595C42.6808 30.7283 40.4652 31.021 38.3184 31.2244C39.0947 34.7431 39.0947 38.3887 38.3184 41.9073C40.4667 42.1166 42.6779 42.4093 44.8759 42.7766Z" fill="white"/>
<path d="M33.2969 20.079C34.8882 22.3708 36.1981 24.8456 37.1983 27.4502C39.1169 27.2849 41.0369 27.0434 42.9305 26.7639C40.6048 23.4726 37.1939 21.1058 33.2969 20.079V20.079Z" fill="white"/>
<path d="M33.1652 27.7298C32.0695 25.2286 30.6739 22.8698 29.0091 20.7054C27.3483 22.8701 25.9571 25.2289 24.8662 27.7298C27.6174 27.8571 30.4008 27.8571 33.1652 27.7298Z" fill="white"/>
<path d="M29.0125 11.9439C26.2045 11.942 23.4171 12.4227 20.772 13.3649L21.9588 16.2917C25.8989 14.9171 30.1542 14.7211 34.204 15.7277C38.2537 16.7343 41.9221 18.8998 44.7601 21.9591C47.5981 25.0184 49.4826 28.8388 50.1828 32.9525C50.8831 37.0663 50.3687 41.295 48.7027 45.121H49.5032C50.3282 45.1216 51.1395 45.3321 51.8608 45.7327C53.0346 42.8223 53.6363 39.7129 53.6329 36.5746C53.5028 30.0847 50.8674 23.8966 46.2784 19.3057C41.6893 14.7147 35.5023 12.0767 29.0125 11.9439V11.9439Z" fill="white"/>
<path d="M7.53968 36.841C7.53717 35.1065 7.74852 33.3783 8.16895 31.6956C7.08721 31.6972 6.03372 31.3503 5.16456 30.7063C4.2304 34.3444 4.14064 38.1478 4.90215 41.8259C5.66366 45.5039 7.25627 48.9591 9.55816 51.9271C11.86 54.8951 14.8102 57.2974 18.1831 58.9502C21.556 60.6029 25.2622 61.4624 29.0182 61.4629C29.3504 61.4629 29.6928 61.4541 30.025 61.4366C30.1262 60.4861 30.5083 59.5874 31.1226 58.8551C31.3523 58.5797 31.6153 58.3339 31.9055 58.1234C30.949 58.2575 29.9841 58.3235 29.0182 58.321C23.3227 58.3171 17.8616 56.0527 13.8344 52.0252C9.80715 47.9978 7.54317 42.5365 7.53968 36.841V36.841Z" fill="white"/>
<path d="M10.4342 29.2795H12.1201V27.1458C16.282 26.9614 18.5474 24.459 18.5474 21.6141C18.5474 17.5312 14.9386 16.7673 12.1201 15.977V11.8941C12.8576 12.1575 13.3581 12.7634 13.4635 13.738H18.284C18.0469 10.3927 15.7289 8.54875 12.1201 8.259V6.12534H10.4342V8.259C6.85179 8.49607 4.08594 10.4453 4.08594 13.738C4.08594 17.8736 7.61569 18.6639 10.4342 19.4014V23.5634C9.53862 23.2736 9.01179 22.6151 8.90643 21.5351H4.11228C4.24399 24.9331 6.85179 26.8034 10.4342 27.1195V29.2795ZM13.8323 21.7722C13.8323 22.7468 13.1737 23.458 12.1201 23.6424V19.9019C13.1474 20.297 13.8323 20.8239 13.8323 21.7722ZM8.85374 13.5273C8.85374 12.5 9.4596 11.9205 10.4342 11.7624V15.4239C9.48594 15.0024 8.85374 14.4492 8.85374 13.5273Z" fill="white"/>
<path d="M37.557 63.6964L36.194 61.8211L37.1849 61.1008C37.9094 60.5742 38.4818 60.7119 38.9 61.2873C39.3182 61.8627 39.2725 62.4495 38.5479 62.9761L37.557 63.6964ZM40.7539 59.9398C39.7549 58.5653 38.0874 58.1977 36.2547 59.5298L33.3032 61.675L38.7398 69.1549L40.5618 67.8306L38.6102 65.1455L39.7397 64.3246C41.6469 62.9383 41.6523 61.1758 40.7539 59.9398Z" fill="white"/>
<path d="M49.7255 61.1702L51.9524 59.5516L46.1751 57.921L46.4093 52.1492L44.2676 53.7058L44.1596 58.7998L41.7743 55.518L39.9523 56.8423L45.3888 64.3222L47.2109 62.9979L44.8101 59.6948L49.7255 61.1702Z" fill="white"/>
<path d="M53.1005 50.9986C53.5264 51.5846 53.4623 52.1686 52.7804 52.6642L51.651 53.4851L50.3034 51.6311L51.4329 50.8102C52.1148 50.3146 52.6978 50.4445 53.1005 50.9986ZM47.3817 51.4424L52.8183 58.9223L54.6403 57.598L52.588 54.7744L53.0249 54.4569L56.6328 56.1498L58.6893 54.6551L54.8102 52.9476C55.7131 51.7702 55.5818 50.5141 54.9003 49.5765C53.9555 48.2765 52.2724 47.8877 50.4397 49.2197L47.3817 51.4424Z" fill="white"/>
</svg>
