<svg xmlns="http://www.w3.org/2000/svg" xmlns:xlink="http://www.w3.org/1999/xlink" width="25" height="25" viewBox="0 0 25 25">
  <defs>
    <clipPath id="clip-path">
      <rect id="Rectangle_8" data-name="Rectangle 8" width="25" height="25" transform="translate(5012 -862)" fill="#fff"/>
    </clipPath>
  </defs>
  <g id="eye" transform="translate(-5012 862)" clip-path="url(#clip-path)">
    <path id="Icon_ionic-md-eye-off" data-name="Icon ionic-md-eye-off" d="M14.331,8.856a5.476,5.476,0,0,1,5.493,5.45,5.243,5.243,0,0,1-.394,1.995l3.208,3.181a12.888,12.888,0,0,0,3.768-5.175A13.009,13.009,0,0,0,9.948,6.894L12.32,9.249A5.432,5.432,0,0,1,14.331,8.856ZM3.35,5.885,5.857,8.371l.507.5A12.826,12.826,0,0,0,2.25,14.306a13.029,13.029,0,0,0,16.89,7.256l.464.458L22.822,25.2l1.4-1.385L4.741,4.5Zm6.07,6.022,1.7,1.687a3.088,3.088,0,0,0-.086.706,3.278,3.278,0,0,0,3.294,3.267,3.1,3.1,0,0,0,.712-.086l1.7,1.687A5.465,5.465,0,0,1,8.838,14.3,5.385,5.385,0,0,1,9.42,11.907Zm4.733-.846,3.461,3.434.022-.173a3.278,3.278,0,0,0-3.294-3.267Z" transform="translate(5010.75 -863.5)" fill="#c4c3c3"/>
  </g>
</svg>
