<svg xmlns="http://www.w3.org/2000/svg" width="24.139" height="16.092" viewBox="0 0 24.139 16.092">
  <path id="Icon_awesome-eye" data-name="Icon awesome-eye" d="M23.993,11.934A13.441,13.441,0,0,0,12.069,4.5,13.443,13.443,0,0,0,.146,11.935a1.356,1.356,0,0,0,0,1.223,13.441,13.441,0,0,0,11.924,7.434,13.443,13.443,0,0,0,11.924-7.435A1.356,1.356,0,0,0,23.993,11.934ZM12.069,18.581A6.035,6.035,0,1,1,18.1,12.546,6.035,6.035,0,0,1,12.069,18.581Zm0-10.058a3.994,3.994,0,0,0-1.061.159,2.005,2.005,0,0,1-2.8,2.8,4.014,4.014,0,1,0,3.864-2.962Z" transform="translate(0 -4.5)" fill="#c4c3c3"/>
</svg>
